<svg xmlns="http://www.w3.org/2000/svg" version="1.1" xmlns:xlink="http://www.w3.org/1999/xlink" xmlns:svgjs="http://svgjs.dev/svgjs" width="2000" height="1252" viewBox="0 0 2000 1252"><g transform="matrix(1,0,0,1,-1.2121212121212466,21.420156402737007)"><svg viewBox="0 0 396 248" data-background-color="#ffffff" preserveAspectRatio="xMidYMid meet" height="1252" width="2000" xmlns="http://www.w3.org/2000/svg" xmlns:xlink="http://www.w3.org/1999/xlink"><g id="tight-bounds" transform="matrix(1,0,0,1,0.2400000000000091,0.4000000000000057)"><svg viewBox="0 0 395.52 247.2" height="247.2" width="395.52"><g><svg></svg></g><g><svg viewBox="0 0 395.52 247.2" height="247.2" width="395.52"><g transform="matrix(1,0,0,1,116.0302314685643,47.215199999999996)"><svg viewBox="0 0 163.4595370628714 152.7696" height="152.7696" width="163.4595370628714"><g><svg viewBox="0 0 244.43135999999998 228.44602257923486" height="152.7696" width="163.4595370628714"><g transform="matrix(1,0,0,1,0,141.18880675385972)"><svg viewBox="0 0 244.43135999999998 87.25721582537514" height="87.25721582537514" width="244.43135999999998"><g id="textblocktransform"><svg viewBox="0 0 244.43135999999998 87.25721582537514" height="87.25721582537514" width="244.43135999999998" id="textblock"><g><svg viewBox="0 0 244.43135999999998 87.25721582537514" height="87.25721582537514" width="244.43135999999998"><g transform="matrix(1,0,0,1,0,0)"><svg width="244.43135999999998" viewBox="0.65 -38.7 109.94 39.25" height="87.25721582537514" data-palette-color="#000000"><path d="M0.65-4.55L4.55-9.95Q8.8-5.7 13.05-5.7L13.05-5.7Q15.25-5.7 16.57-6.73 17.9-7.75 17.9-9.38 17.9-11 16.3-12.13 14.7-13.25 12.43-14.1 10.15-14.95 7.9-16.03 5.65-17.1 4.05-19.1 2.45-21.1 2.45-23.95L2.45-23.95Q2.45-28.45 6.2-31.73 9.95-35 15.1-35L15.1-35Q17.45-35 19.65-34.5 21.85-34 23.9-33.05L23.9-33.05 20.5-25.75Q19.1-26.85 16.68-27.78 14.25-28.7 12.43-28.7 10.6-28.7 9.47-27.83 8.35-26.95 8.35-25.5 8.35-24.05 9.95-22.93 11.55-21.8 13.83-20.95 16.1-20.1 18.38-19.07 20.65-18.05 22.25-16.05 23.85-14.05 23.85-11.2L23.85-11.2Q23.85-6.5 20.1-2.98 16.35 0.55 11.35 0.55L11.35 0.55Q7.6 0.55 4.7-1.25L4.7-1.25Q2.15-2.8 1.1-4L1.1-4 0.65-4.55ZM42.65-12.65Q42.65-16.1 42.05-17.25 41.45-18.4 39.25-18.4 37.05-18.4 34.25-16.65L34.25-16.65 34.25-13 34.8-1.25 28.05 0 28.65-12.15 28.05-37.45 34.9-38.7 34.25-25.75 34.25-19.9Q35-20.9 35.95-21.85 36.9-22.8 38.9-24 40.9-25.2 43.17-25.2 45.45-25.2 47-23.43 48.55-21.65 48.55-18.6L48.55-18.6 48.25-13 48.8-1 42.05 0.25 42.65-12.65ZM54.3-24.2L61-25.45 60.4-13 60.95-1.25 54.25 0 54.85-12.15 54.3-24.2ZM53.95-32.77Q53.95-34.45 55.25-35.77 56.55-37.1 58.25-37.1 59.95-37.1 60.85-36.18 61.75-35.25 61.75-33.4 61.75-31.55 60.47-30.23 59.2-28.9 57.52-28.9 55.85-28.9 54.9-30 53.95-31.1 53.95-32.77ZM80.99-12.65Q80.99-16.1 80.39-17.25 79.79-18.4 77.59-18.4 75.39-18.4 72.59-16.65L72.59-16.65 72.59-13 73.14-1.25 66.44 0 67.04-12.15Q66.84-18.85 65.94-24.15L65.94-24.15 71.99-25.45Q72.34-22.55 72.49-19.8L72.49-19.8Q73.24-20.8 74.19-21.78 75.14-22.75 77.19-23.98 79.24-25.2 81.52-25.2 83.79-25.2 85.34-23.43 86.89-21.65 86.89-18.6L86.89-18.6 86.59-13 87.14-1 80.39 0.25 80.99-12.65ZM101.64-5.1L101.64-5.1Q103.09-5.1 104.69-5.85 106.29-6.6 107.19-7.35L107.19-7.35 108.09-8.1 110.39-5.3Q109.89-4.45 108.84-3.35 107.79-2.25 106.72-1.48 105.64-0.7 103.87-0.08 102.09 0.55 100.19 0.55L100.19 0.55Q96.14 0.55 93.59-2.53 91.04-5.6 91.04-10.45L91.04-10.45Q91.04-16.55 94.59-21.15 98.14-25.75 102.89-25.75L102.89-25.75Q106.54-25.75 108.57-23.7 110.59-21.65 110.59-17.95L110.59-17.95Q110.59-15.75 109.84-12.95L109.84-12.95 108.84-11.9 96.34-10.75Q97.19-5.1 101.64-5.1ZM101.64-20.6L101.64-20.6Q99.44-20.6 97.94-18.82 96.44-17.05 96.19-14.3L96.19-14.3 104.69-15.35Q104.84-16.5 104.84-17.25L104.84-17.25Q104.84-20.6 101.64-20.6Z" opacity="1" transform="matrix(1,0,0,1,0,0)" fill="#ffffff" class="wordmark-text-0" data-fill-palette-color="primary" id="text-0"></path></svg></g></svg></g></svg></g></svg></g><g transform="matrix(1,0,0,1,61.952113309649384,0)"><svg viewBox="0 0 120.52713338070122 120.58947227066845" height="120.58947227066845" width="120.52713338070122"><g><svg xmlns="http://www.w3.org/2000/svg" viewBox="1.0099883475638942 1 57.980011652436104 58.01" x="0" y="0" height="120.58947227066845" width="120.52713338070122" class="icon-icon-0" data-fill-palette-color="accent" id="icon-0"><path d="M51.99 4C51.99 4.02 51.98 4.04 51.98 4.06 51.97 4.13 51.96 4.19 51.95 4.25 51.92 4.32 51.91 4.38 51.89 4.44 51.88 4.46 51.88 4.48 51.86 4.5L48.72 10H39.26L36.12 4.5C36.11 4.48 36.11 4.46 36.1 4.44 36.08 4.38 36.07 4.32 36.04 4.25 36.03 4.19 36.02 4.13 36.01 4.06 36.01 4.04 35.99 4.02 35.99 4A1.3 1.3 0 0 1 36.03 3.81V3.72C36.49 1.09 43.21 1 43.99 1 44.78 1 51.49 1.09 51.96 3.72V3.81A1 1 0 0 1 51.99 4" fill="#ffffff" data-fill-palette-color="accent"></path><rect x="39.98999" y="12" width="8" height="2" fill="#ffffff" data-fill-palette-color="accent"></rect><path d="M36.99 10.8A6.9 6.9 0 0 1 36.67 13H29.32A6.6 6.6 0 0 1 28.99 10.8C28.99 8 32.03 5.5 32.38 5.22 32.4 5.2 32.42 5.2 32.46 5.18A0.7 0.7 0 0 1 32.62 5.09 0.6 0.6 0 0 1 32.8 5.03 1.3 1.3 0 0 1 32.99 5.02 1 1 0 0 1 33.18 5.03 0.6 0.6 0 0 1 33.36 5.09 0.6 0.6 0 0 1 33.53 5.18C33.57 5.2 33.59 5.2 33.61 5.22 33.96 5.5 36.99 8 36.99 10.8" fill="#ffffff" data-fill-palette-color="accent"></path><path d="M58.99 20.01A3.005 3.005 0 0 0 55.98 17.01H55.97A2.93 2.93 0 0 0 53.88 17.88L48.59 23.03C48.4 23.02 48.2 23 47.99 23V16H39.99V23H35.99V19H29.99V23H26.99V13H20.99V23H18.99V17A2.006 2.006 0 0 0 16.99 15V13H9.99V15A2.01 2.01 0 0 0 7.99 17V23.23A8.994 8.994 0 0 0 1.01 32.01L1.03 58.98 56.96 59.01 56.98 32.01A8.88 8.88 0 0 0 54.41 25.71L58.11 22.13A3 3 0 0 0 58.99 20.01M4.99 54.01A1 1 0 0 1 2.99 54.01V50.01A1 1 0 0 1 4.99 50.01ZM4.99 46.01A1 1 0 0 1 2.99 46.01V33.01A1 1 0 0 1 4.99 33.01ZM41.15 40.5L29.72 52.69A0.98 0.98 0 0 1 28.27 52.69L16.84 40.5A7.045 7.045 0 0 1 16.84 31.01 6.15 6.15 0 0 1 25.91 31L28.99 34.3 32.08 31.01A6.14 6.14 0 0 1 41.15 31.01 7.045 7.045 0 0 1 41.15 40.5M56.71 20.7L52.85 24.44A8.7 8.7 0 0 0 50.96 23.51L55.28 19.3A0.98 0.98 0 0 1 55.98 19.01 0.9 0.9 0 0 1 56.7 19.31 0.99 0.99 0 0 1 56.71 20.7" fill="#ffffff" data-fill-palette-color="accent"></path><path d="M17.995 3V11H8.995V3A2.006 2.006 0 0 1 10.995 1H15.995A2.006 2.006 0 0 1 17.995 3" fill="#ffffff" data-fill-palette-color="accent"></path><rect x="29.995" y="15" width="6" height="2" fill="#ffffff" data-fill-palette-color="accent"></rect><path d="M26.815 11H21.175L22.045 6.57A1.997 1.997 0 0 1 25.935 6.52Z" fill="#ffffff" data-fill-palette-color="accent"></path><path d="M36.616 31.01H36.612A4.2 4.2 0 0 0 33.53 32.375L29.725 36.443A1.03 1.03 0 0 1 28.265 36.443L24.458 32.373A4.2 4.2 0 0 0 21.378 31.01H21.374A4.2 4.2 0 0 0 18.305 32.373 5.01 5.01 0 0 0 18.304 39.134L28.995 50.547 39.685 39.136 39.686 39.134A5.01 5.01 0 0 0 39.684 32.374 4.2 4.2 0 0 0 36.616 31.01" fill="#ffffff" data-fill-palette-color="accent"></path></svg></g></svg></g><g></g></svg></g></svg></g><g><path d="M159.693 33.44A81.73 81.73 0 0 1 235.827 33.44L230.565 33.44A76.468 76.468 0 0 0 164.955 33.44L159.693 33.44M159.693 213.76A81.73 81.73 0 0 0 235.827 213.76L230.565 213.76A76.468 76.468 0 0 1 164.955 213.76L159.693 213.76" fill="#ffffff" stroke="transparent" data-fill-palette-color="tertiary"></path></g></svg></g><defs></defs></svg><rect width="395.52" height="247.2" fill="none" stroke="none" visibility="hidden"></rect></g></svg></g></svg>